<svg xmlns="http://www.w3.org/2000/svg" width="197.333" height="197.333" version="1.0" viewBox="0 0 148 148"><path d="M20.8 23.2c1.1 1.3 7.3 7.6 13.7 14C40.8 43.7 46 49.3 46 49.7c0 .5-5.4 6.2-12 12.8l-12 12 12 12c6.6 6.6 12 12.3 12 12.7 0 .4-6.1 6.9-13.5 14.5-13.5 13.8-13.6 13.8-10.4 14.1 2.9.3 4.3-.8 15.8-12.2l12.6-12.5 12 12.3 12 12.3 12.1-12.3 12.1-12.3 12.3 12.4c11.2 11.4 12.5 12.5 15.8 12.5h3.7l-14.3-14.3L102 99.5 114.5 87 127 74.5 114.5 62 102 49.5l14.2-14.2L130.5 21h-3.7c-3.4 0-4.6 1-15.9 12.5L98.6 46l-12-12.3-12.1-12.4-12 12.3-12 12.3L38 33.4C26.9 22.4 25.1 21 22.1 21h-3.4l2.1 2.2zM119 74.5c0 .2-10 10.5-22.3 22.9L74.4 120 52.2 97.7C40 85.5 30 75.1 30 74.6s10-11 22.2-23.3L74.5 29l22.2 22.6C109 64 119 74.3 119 74.5z"/><path d="M51.9 68.7c-.1 1-.1 3.5 0 5.6.1 3.2-.3 3.9-2.5 4.7-2.8 1.1-2.4 3 .6 3 3.5 0 5-2.8 5-9.1 0-4.6-.3-5.9-1.5-5.9-.8 0-1.6.8-1.6 1.7zM61.2 67.7c-1.9.8-4 5.5-3.6 8.3 1 6.7 9.8 8.1 12.8 2.1 3.3-6.5-2.5-13.1-9.2-10.4zm6.4 4.7c.9 3.8-.4 6.6-3.1 6.6s-4-2.8-3.1-6.6c.5-1.7 1.3-2.4 3.1-2.4s2.6.7 3.1 2.4zM73 74.5c0 6 .3 7.5 1.5 7.5 1.4 0 2-1.7 1.6-4.8-.1-.7 1-1.2 2.9-1.2 2.7 0 3 .3 3 3 0 1.9.5 3 1.4 3 1.1 0 1.5-1.7 1.8-6.5.4-7.5.2-8.5-1.8-8.5-.9 0-1.4 1.1-1.4 3 0 2.7-.3 3-3.1 3-2.3 0-3-.4-2.8-1.8.3-3.2-.1-4.2-1.6-4.2-1.2 0-1.5 1.5-1.5 7.5zM88 74.5c0 6 .3 7.5 1.5 7.5 1.1 0 1.5-1.3 1.5-5.3l.1-5.2 2.6 5.2c1.7 3.5 3.3 5.3 4.5 5.3 1.6 0 1.8-.9 1.8-7.5 0-6-.3-7.5-1.5-7.5-1.1 0-1.5 1.2-1.5 4.7l-.1 4.8-2.5-4.8C92.7 68.5 91.3 67 90 67c-1.8 0-2 .7-2 7.5zM0 74c0 .6 2.8 1 6.5 1s6.5-.4 6.5-1-2.8-1-6.5-1-6.5.4-6.5 1zM135 74c0 .6 2.8 1 6.5 1s6.5-.4 6.5-1-2.8-1-6.5-1-6.5.4-6.5 1z"/></svg>